%TF.GenerationSoftware,Altium Limited,Altium Designer,24.3.1 (35)*%
G04 Layer_Color=0*
%FSLAX45Y45*%
%MOMM*%
%TF.SameCoordinates,335D41A4-EFD6-4B0F-B868-2B534B1C8AB3*%
%TF.FilePolarity,Positive*%
%TF.FileFunction,Plated,1,2,PTH,Drill*%
%TF.Part,Single*%
G01*
G75*
%TA.AperFunction,ComponentDrill*%
%ADD94C,1.00000*%
%TA.AperFunction,OtherDrill,Pad Free-5 (55.4mm,102.46mm)*%
%ADD95C,0.76200*%
%TA.AperFunction,OtherDrill,Pad Free-2 (55.4mm,110.08mm)*%
%ADD96C,0.76200*%
%TA.AperFunction,OtherDrill,Pad Free-3 (55.4mm,107.54mm)*%
%ADD97C,0.76200*%
%TA.AperFunction,OtherDrill,Pad Free-4 (55.4mm,105mm)*%
%ADD98C,0.76200*%
%TA.AperFunction,OtherDrill,Pad Free-6 (29mm,81mm)*%
%ADD99C,3.00000*%
%TA.AperFunction,OtherDrill,Pad Free-6 (29mm,29mm)*%
%ADD100C,3.00000*%
%TA.AperFunction,OtherDrill,Pad Free-6 (112mm,29mm)*%
%ADD101C,3.00000*%
%TA.AperFunction,OtherDrill,Pad Free-6 (112mm,111mm)*%
%ADD102C,3.00000*%
%TA.AperFunction,ComponentDrill*%
%ADD103C,0.61000*%
%ADD104C,1.20000*%
%ADD105C,1.10000*%
%ADD106O,1.40000X0.60000*%
%ADD107O,1.20000X0.60000*%
%ADD108O,1.70000X0.60000*%
%TA.AperFunction,ViaDrill,NotFilled*%
%ADD109C,0.71120*%
D94*
X5540000Y9993000D02*
D03*
Y9739000D02*
D03*
Y9485000D02*
D03*
Y9231000D02*
D03*
Y8977000D02*
D03*
X3000000Y9993000D02*
D03*
Y9739000D02*
D03*
Y9485000D02*
D03*
Y9231000D02*
D03*
Y8977000D02*
D03*
D95*
X5540000Y10246000D02*
D03*
D96*
Y11008000D02*
D03*
D97*
Y10754000D02*
D03*
D98*
Y10500000D02*
D03*
D99*
X2900000Y8100000D02*
D03*
D100*
Y2900000D02*
D03*
D101*
X11200000D02*
D03*
D102*
Y11100000D02*
D03*
D103*
X10940900Y4683200D02*
D03*
Y4105200D02*
D03*
D104*
X6738600Y10287000D02*
D03*
X7688600D02*
D03*
X6877700Y10622900D02*
D03*
X7549500D02*
D03*
X6877700Y9951100D02*
D03*
X7549500D02*
D03*
D105*
X3136900Y6642100D02*
D03*
X3390900D02*
D03*
X3136900Y6388100D02*
D03*
X3390900D02*
D03*
Y6896100D02*
D03*
X3136900D02*
D03*
X3390900Y7150100D02*
D03*
Y7404100D02*
D03*
X3136900Y7150100D02*
D03*
Y7404100D02*
D03*
D106*
X11308900Y4826200D02*
D03*
D107*
Y3962200D02*
D03*
D108*
X10890900Y4826200D02*
D03*
Y3962200D02*
D03*
D109*
X10960100Y9271000D02*
D03*
X11226800Y9334500D02*
D03*
X7581900Y4775200D02*
D03*
X6972300Y7282180D02*
D03*
X4660900Y8255000D02*
D03*
X4292600Y8115300D02*
D03*
X5372100Y4533900D02*
D03*
X6692900Y4749800D02*
D03*
X6667500Y5562600D02*
D03*
X7327900Y3670300D02*
D03*
X6652260Y4345940D02*
D03*
X6032500Y3530600D02*
D03*
X3263900Y5918200D02*
D03*
X5880100Y3797300D02*
D03*
X4305300Y3695700D02*
D03*
X8255000Y7581900D02*
D03*
X7696200Y6959600D02*
D03*
X7741920Y5054600D02*
D03*
X10426700Y3492500D02*
D03*
X8750300Y3886200D02*
D03*
X8686800Y4163060D02*
D03*
X11125200Y9436100D02*
D03*
X8763000Y9258300D02*
D03*
X9956800Y5727700D02*
D03*
X10392355Y4220155D02*
D03*
X4114800Y4025900D02*
D03*
X3568700Y3124200D02*
D03*
X10528300Y4038600D02*
D03*
X8636000Y5336540D02*
D03*
X10375900Y6273800D02*
D03*
X6009640Y4025900D02*
D03*
X8442960Y4922520D02*
D03*
X8290560D02*
D03*
X6703060Y4015740D02*
D03*
X8262620Y5486400D02*
D03*
X6664960Y5915660D02*
D03*
X9067800Y4264660D02*
D03*
%TF.MD5,e5b4c23e01f612b917390688c317eb34*%
M02*
