%TF.GenerationSoftware,Altium Limited,Altium Designer,24.3.1 (35)*%
G04 Layer_Color=8421504*
%FSLAX45Y45*%
%MOMM*%
%TF.SameCoordinates,335D41A4-EFD6-4B0F-B868-2B534B1C8AB3*%
%TF.FilePolarity,Positive*%
%TF.FileFunction,Paste,Top*%
%TF.Part,Single*%
G01*
G75*
%TA.AperFunction,SMDPad,CuDef*%
%ADD10R,1.90620X1.50464*%
%ADD11R,0.95000X1.45000*%
%TA.AperFunction,ConnectorPad*%
%ADD12R,1.15000X0.30000*%
%TA.AperFunction,SMDPad,CuDef*%
G04:AMPARAMS|DCode=13|XSize=0.6858mm|YSize=0.5mm|CornerRadius=0.0625mm|HoleSize=0mm|Usage=FLASHONLY|Rotation=0.000|XOffset=0mm|YOffset=0mm|HoleType=Round|Shape=RoundedRectangle|*
%AMROUNDEDRECTD13*
21,1,0.68580,0.37500,0,0,0.0*
21,1,0.56080,0.50000,0,0,0.0*
1,1,0.12500,0.28040,-0.18750*
1,1,0.12500,-0.28040,-0.18750*
1,1,0.12500,-0.28040,0.18750*
1,1,0.12500,0.28040,0.18750*
%
%ADD13ROUNDEDRECTD13*%
G04:AMPARAMS|DCode=14|XSize=0.9mm|YSize=1.45mm|CornerRadius=0.0495mm|HoleSize=0mm|Usage=FLASHONLY|Rotation=90.000|XOffset=0mm|YOffset=0mm|HoleType=Round|Shape=RoundedRectangle|*
%AMROUNDEDRECTD14*
21,1,0.90000,1.35100,0,0,90.0*
21,1,0.80100,1.45000,0,0,90.0*
1,1,0.09900,0.67550,0.40050*
1,1,0.09900,0.67550,-0.40050*
1,1,0.09900,-0.67550,-0.40050*
1,1,0.09900,-0.67550,0.40050*
%
%ADD14ROUNDEDRECTD14*%
G04:AMPARAMS|DCode=15|XSize=3.15mm|YSize=1.45mm|CornerRadius=0.05075mm|HoleSize=0mm|Usage=FLASHONLY|Rotation=90.000|XOffset=0mm|YOffset=0mm|HoleType=Round|Shape=RoundedRectangle|*
%AMROUNDEDRECTD15*
21,1,3.15000,1.34850,0,0,90.0*
21,1,3.04850,1.45000,0,0,90.0*
1,1,0.10150,0.67425,1.52425*
1,1,0.10150,0.67425,-1.52425*
1,1,0.10150,-0.67425,-1.52425*
1,1,0.10150,-0.67425,1.52425*
%
%ADD15ROUNDEDRECTD15*%
%ADD16R,1.50000X1.55000*%
%ADD17R,1.50000X1.50000*%
%ADD18R,1.55000X1.55000*%
%ADD19R,1.25000X1.22000*%
%ADD20R,0.95000X1.50000*%
%ADD21R,0.90000X1.50000*%
%ADD22R,0.90000X0.80000*%
%ADD23R,1.35000X1.00000*%
%ADD24R,1.80000X0.64000*%
%ADD25R,1.40000X1.55000*%
%ADD26R,1.25000X1.55000*%
%ADD27R,1.55000X1.25000*%
%ADD28R,0.43180X1.13030*%
%ADD29R,1.05000X1.45000*%
%ADD30R,5.00000X5.00000*%
%ADD31R,2.00000X0.90000*%
%ADD32R,0.70000X1.00000*%
%ADD33R,0.70000X0.60000*%
%ADD34R,1.55000X0.60000*%
%ADD35R,1.80000X1.20000*%
%TA.AperFunction,OtherPad,Pad USB-C1-S2 (108.89mm,39.624mm)*%
G04:AMPARAMS|DCode=88|XSize=1mm|YSize=2.1mm|CornerRadius=0.5mm|HoleSize=0mm|Usage=FLASHONLY|Rotation=90.000|XOffset=0mm|YOffset=0mm|HoleType=Round|Shape=RoundedRectangle|*
%AMROUNDEDRECTD88*
21,1,1.00000,1.10000,0,0,90.0*
21,1,0.00000,2.10000,0,0,90.0*
1,1,1.00000,0.55000,0.00000*
1,1,1.00000,0.55000,0.00000*
1,1,1.00000,-0.55000,0.00000*
1,1,1.00000,-0.55000,0.00000*
%
%ADD88ROUNDEDRECTD88*%
%TA.AperFunction,OtherPad,Pad USB-C1-S2 (108.89mm,48.26mm)*%
G04:AMPARAMS|DCode=89|XSize=1mm|YSize=2.1mm|CornerRadius=0.5mm|HoleSize=0mm|Usage=FLASHONLY|Rotation=90.000|XOffset=0mm|YOffset=0mm|HoleType=Round|Shape=RoundedRectangle|*
%AMROUNDEDRECTD89*
21,1,1.00000,1.10000,0,0,90.0*
21,1,0.00000,2.10000,0,0,90.0*
1,1,1.00000,0.55000,0.00000*
1,1,1.00000,0.55000,0.00000*
1,1,1.00000,-0.55000,0.00000*
1,1,1.00000,-0.55000,0.00000*
%
%ADD89ROUNDEDRECTD89*%
%TA.AperFunction,OtherPad,Pad USB-C1-S1 (113.106mm,39.624mm)*%
G04:AMPARAMS|DCode=90|XSize=1mm|YSize=1.8mm|CornerRadius=0.5mm|HoleSize=0mm|Usage=FLASHONLY|Rotation=90.000|XOffset=0mm|YOffset=0mm|HoleType=Round|Shape=RoundedRectangle|*
%AMROUNDEDRECTD90*
21,1,1.00000,0.80000,0,0,90.0*
21,1,0.00000,1.80000,0,0,90.0*
1,1,1.00000,0.40000,0.00000*
1,1,1.00000,0.40000,0.00000*
1,1,1.00000,-0.40000,0.00000*
1,1,1.00000,-0.40000,0.00000*
%
%ADD90ROUNDEDRECTD90*%
%TA.AperFunction,OtherPad,Pad USB-C1-S1 (113.081mm,48.26mm)*%
G04:AMPARAMS|DCode=91|XSize=1mm|YSize=1.8mm|CornerRadius=0.5mm|HoleSize=0mm|Usage=FLASHONLY|Rotation=90.000|XOffset=0mm|YOffset=0mm|HoleType=Round|Shape=RoundedRectangle|*
%AMROUNDEDRECTD91*
21,1,1.00000,0.80000,0,0,90.0*
21,1,0.00000,1.80000,0,0,90.0*
1,1,1.00000,0.40000,0.00000*
1,1,1.00000,0.40000,0.00000*
1,1,1.00000,-0.40000,0.00000*
1,1,1.00000,-0.40000,0.00000*
%
%ADD91ROUNDEDRECTD91*%
D10*
X9436100Y7503378D02*
D03*
Y7203222D02*
D03*
X9740900Y7503378D02*
D03*
Y7203222D02*
D03*
X9105900D02*
D03*
Y7503378D02*
D03*
X6070600Y8333522D02*
D03*
Y8633678D02*
D03*
X9512300Y4472722D02*
D03*
Y4772878D02*
D03*
X9169400D02*
D03*
Y4472722D02*
D03*
X4927600Y7554178D02*
D03*
Y7254022D02*
D03*
D11*
X9910100Y4025900D02*
D03*
X10105100D02*
D03*
X9910100Y3721100D02*
D03*
X10105100D02*
D03*
D12*
X10825000Y4699200D02*
D03*
Y4089200D02*
D03*
X10834400Y4729200D02*
D03*
X10828000Y4649200D02*
D03*
X10834400Y4169200D02*
D03*
Y4059200D02*
D03*
X10828000Y4139200D02*
D03*
X10834400Y4219200D02*
D03*
Y4269200D02*
D03*
Y4319200D02*
D03*
Y4369200D02*
D03*
Y4419200D02*
D03*
Y4469200D02*
D03*
Y4519200D02*
D03*
Y4569200D02*
D03*
Y4619200D02*
D03*
D13*
X10922000Y10646400D02*
D03*
Y10566400D02*
D03*
Y10486400D02*
D03*
Y10406400D02*
D03*
X10682000Y10404400D02*
D03*
Y10486400D02*
D03*
Y10566400D02*
D03*
Y10646400D02*
D03*
D14*
X6550503Y8726302D02*
D03*
Y8496300D02*
D03*
Y8266298D02*
D03*
D15*
X7165503Y8496300D02*
D03*
D16*
X8901598Y5727700D02*
D03*
X9081602D02*
D03*
X10719902Y5245100D02*
D03*
X10539898D02*
D03*
X9640402Y6261100D02*
D03*
X9460398D02*
D03*
X9640402Y5981700D02*
D03*
X9460398D02*
D03*
X9640402Y5702300D02*
D03*
X9460398D02*
D03*
D17*
X10248900Y5641599D02*
D03*
Y5991601D02*
D03*
D18*
X11058098Y5867400D02*
D03*
X11243102D02*
D03*
X4550202Y4737100D02*
D03*
X4365198D02*
D03*
X4550202Y4457700D02*
D03*
X4365198D02*
D03*
X9642902Y5397500D02*
D03*
X9457898D02*
D03*
D19*
X10990402Y6134100D02*
D03*
X11285398D02*
D03*
D20*
X11408898Y5243998D02*
D03*
X10993902D02*
D03*
X11358098Y3605698D02*
D03*
X10943102D02*
D03*
D21*
X8420200Y8035400D02*
D03*
X8750200D02*
D03*
Y8525400D02*
D03*
X8420200D02*
D03*
X9283800Y8035400D02*
D03*
X9613800D02*
D03*
Y8525400D02*
D03*
X9283800D02*
D03*
X10134700Y8035400D02*
D03*
X10464700D02*
D03*
Y8525400D02*
D03*
X10134700D02*
D03*
D22*
X4941900Y4628901D02*
D03*
Y4438899D02*
D03*
X5141900Y4533900D02*
D03*
X5272100Y3943101D02*
D03*
Y3753099D02*
D03*
X5472100Y3848100D02*
D03*
D23*
X10490200Y5640400D02*
D03*
Y5840400D02*
D03*
D24*
X4539600Y4152900D02*
D03*
Y4025900D02*
D03*
Y3898900D02*
D03*
Y3771900D02*
D03*
Y3644900D02*
D03*
Y3517900D02*
D03*
Y3390900D02*
D03*
Y3263900D02*
D03*
X3918600D02*
D03*
Y3390900D02*
D03*
Y3517900D02*
D03*
Y3644900D02*
D03*
Y3771900D02*
D03*
Y3898900D02*
D03*
Y4025900D02*
D03*
Y4152900D02*
D03*
D25*
X11055599Y5575300D02*
D03*
X11245601D02*
D03*
D26*
X8889101Y5397500D02*
D03*
X9094099D02*
D03*
D27*
X5143500Y4863202D02*
D03*
Y5068200D02*
D03*
X4965700Y3975999D02*
D03*
Y3771001D02*
D03*
D28*
X10039101Y4813300D02*
D03*
X9944100D02*
D03*
X9849099D02*
D03*
Y4535170D02*
D03*
X10039101D02*
D03*
D29*
X5939998Y6591300D02*
D03*
X6125002D02*
D03*
D30*
X7339899Y4356801D02*
D03*
D31*
X6389898Y3606800D02*
D03*
Y3733800D02*
D03*
Y3860800D02*
D03*
Y3987800D02*
D03*
Y4114800D02*
D03*
Y4241800D02*
D03*
Y4368800D02*
D03*
Y4495800D02*
D03*
Y4622800D02*
D03*
Y4749800D02*
D03*
Y4876800D02*
D03*
Y5003800D02*
D03*
Y5130800D02*
D03*
Y5257800D02*
D03*
Y5384800D02*
D03*
Y5511800D02*
D03*
Y5638800D02*
D03*
Y5765800D02*
D03*
Y5892800D02*
D03*
X8089900D02*
D03*
Y5765800D02*
D03*
Y5638800D02*
D03*
Y5511800D02*
D03*
Y5384800D02*
D03*
Y5257800D02*
D03*
Y5130800D02*
D03*
Y5003800D02*
D03*
Y4876800D02*
D03*
Y4749800D02*
D03*
Y4622800D02*
D03*
Y4495800D02*
D03*
Y4368800D02*
D03*
Y4241800D02*
D03*
Y4114800D02*
D03*
Y3987800D02*
D03*
Y3860800D02*
D03*
Y3733800D02*
D03*
Y3606800D02*
D03*
D32*
X10263200Y4748601D02*
D03*
D33*
Y4578599D02*
D03*
X10463200D02*
D03*
Y4768601D02*
D03*
D34*
X11048398Y7382802D02*
D03*
Y7282802D02*
D03*
Y7182802D02*
D03*
Y7082802D02*
D03*
D35*
X11435901Y6952800D02*
D03*
Y7512804D02*
D03*
D88*
X10888980Y3962400D02*
D03*
D89*
Y4826000D02*
D03*
D90*
X11310620Y3962400D02*
D03*
D91*
X11308080Y4826000D02*
D03*
%TF.MD5,133ab92d24a1e6c61b10f2d789f874b6*%
M02*
