%TF.GenerationSoftware,Altium Limited,Altium Designer,24.3.1 (35)*%
G04 Layer_Color=65535*
%FSLAX45Y45*%
%MOMM*%
%TF.SameCoordinates,335D41A4-EFD6-4B0F-B868-2B534B1C8AB3*%
%TF.FilePolarity,Positive*%
%TF.FileFunction,Legend,Top*%
%TF.Part,Single*%
G01*
G75*
%TA.AperFunction,NonConductor*%
%ADD51C,0.25000*%
%ADD52C,0.20000*%
%ADD53C,0.15000*%
%ADD54C,0.30000*%
%ADD55C,0.10000*%
%ADD56C,0.12700*%
%ADD57C,0.15240*%
%ADD58C,0.25400*%
%ADD59C,0.07620*%
D51*
X5552500Y8790000D02*
G03*
X5552500Y8790000I-12500J0D01*
G01*
X3012500D02*
G03*
X3012500Y8790000I-12500J0D01*
G01*
X6368600Y10622900D02*
G03*
X6368600Y10622900I-12500J0D01*
G01*
X6563000Y8826300D02*
G03*
X6563000Y8826300I-12500J0D01*
G01*
X3401400Y6200100D02*
G03*
X3401400Y6200100I-12500J0D01*
G01*
X11002900Y6250100D02*
G03*
X11002900Y6250100I-12500J0D01*
G01*
X11073900Y5364000D02*
G03*
X11073900Y5364000I-12500J0D01*
G01*
X11023100Y3725698D02*
G03*
X11023100Y3725698I-12500J0D01*
G01*
X8432700Y7905400D02*
G03*
X8432700Y7905400I-12500J0D01*
G01*
X9296300D02*
G03*
X9296300Y7905400I-12500J0D01*
G01*
X10147200D02*
G03*
X10147200Y7905400I-12500J0D01*
G01*
X4954400Y4723900D02*
G03*
X4954400Y4723900I-12500J0D01*
G01*
X8262400Y3606800D02*
G03*
X8262400Y3606800I-12500J0D01*
G01*
X5284600Y4038100D02*
G03*
X5284600Y4038100I-12500J0D01*
G01*
D52*
X11016500Y10646400D02*
G03*
X11016500Y10646400I-10000J0D01*
G01*
X3919100Y4248400D02*
G03*
X3919100Y4248400I-10000J0D01*
G01*
X9340790Y7308454D02*
Y7398146D01*
X9531410Y7308454D02*
Y7398146D01*
X9645590Y7308454D02*
Y7398146D01*
X9836210Y7308454D02*
Y7398146D01*
X5413000Y8850000D02*
X5667000D01*
Y10120000D01*
X5413000D02*
X5667000D01*
X5413000Y8850000D02*
Y10120000D01*
X2873000Y8850000D02*
X3127000D01*
Y10120000D01*
X2873000D02*
X3127000D01*
X2873000Y8850000D02*
Y10120000D01*
X9201210Y7308454D02*
Y7398146D01*
X9010590Y7308454D02*
Y7398146D01*
X9995098Y4095902D02*
X10020102D01*
X9995098Y3955898D02*
X10020102D01*
X9995098Y3791102D02*
X10020102D01*
X9995098Y3651098D02*
X10020102D01*
X6165911Y8438754D02*
Y8528446D01*
X5975289Y8438754D02*
Y8528446D01*
X6653002Y8161299D02*
Y8831301D01*
X7062998Y8161299D02*
Y8831301D01*
X6653002D02*
X7062998D01*
X6653002Y8161299D02*
X7062998D01*
X3002400Y6246100D02*
X3525400D01*
Y7546100D01*
X3002400Y6246100D02*
Y7546100D01*
X3525400D01*
X9607611Y4577954D02*
Y4667646D01*
X9416989Y4577954D02*
Y4667646D01*
X10163901Y5756600D02*
Y5876600D01*
X10333899Y5756600D02*
Y5876600D01*
X10171400Y5784098D02*
X10326400D01*
X11092901Y6051601D02*
X11182899D01*
X11092901Y6216599D02*
X11182899D01*
X11092901Y6051601D02*
Y6216599D01*
X11182899Y6051601D02*
Y6216599D01*
X11001400Y5074001D02*
X11401400D01*
Y5134000D01*
X11001400Y5074001D02*
Y5134000D01*
Y5414000D02*
X11401400D01*
X11001400Y5354000D02*
Y5414000D01*
X11401400Y5354000D02*
Y5414000D01*
X10950600Y3435695D02*
X11350600D01*
Y3495695D01*
X10950600Y3435695D02*
Y3495695D01*
Y3775700D02*
X11350600D01*
X10950600Y3715700D02*
Y3775700D01*
X11350600Y3715700D02*
Y3775700D01*
X8335200Y8030400D02*
Y8530400D01*
X8835200Y8030400D02*
Y8530400D01*
X8830200Y8030400D02*
X8835200D01*
X8830200Y8530400D02*
X8835200D01*
X8335200D02*
X8340200D01*
X8335200Y8030400D02*
X8340200D01*
X8505200D02*
X8665200D01*
X8505200Y8530400D02*
X8665200D01*
X9198800Y8030400D02*
Y8530400D01*
X9698800Y8030400D02*
Y8530400D01*
X9693800Y8030400D02*
X9698800D01*
X9693800Y8530400D02*
X9698800D01*
X9198800D02*
X9203800D01*
X9198800Y8030400D02*
X9203800D01*
X9368800D02*
X9528800D01*
X9368800Y8530400D02*
X9528800D01*
X10049700Y8030400D02*
Y8530400D01*
X10549700Y8030400D02*
Y8530400D01*
X10544700Y8030400D02*
X10549700D01*
X10544700Y8530400D02*
X10549700D01*
X10049700D02*
X10054700D01*
X10049700Y8030400D02*
X10054700D01*
X10219700D02*
X10379700D01*
X10219700Y8530400D02*
X10379700D01*
X5025400Y4679899D02*
X5106899D01*
Y4613900D02*
Y4679899D01*
X5025400Y4387901D02*
X5106899D01*
Y4453900D01*
X9074089Y4577954D02*
Y4667646D01*
X9264711Y4577954D02*
Y4667646D01*
X10420198Y5727898D02*
Y5752902D01*
X10560202Y5727898D02*
Y5752902D01*
X4009100Y3193400D02*
X4449100D01*
X4009100Y4223400D02*
X4449100D01*
X8981603Y5464998D02*
X9001603D01*
X8981603Y5330002D02*
X9001603D01*
X5076002Y4955698D02*
Y4975698D01*
X5210998Y4955698D02*
Y4975698D01*
X4832289Y7359254D02*
Y7448946D01*
X5022911Y7359254D02*
Y7448946D01*
X6022503Y6653799D02*
X6042503D01*
X6022503Y6528801D02*
X6042503D01*
X8144901Y2857800D02*
Y3524301D01*
Y5975299D02*
Y6007801D01*
X6334902D02*
X8144901D01*
X6334902Y2857800D02*
Y3524301D01*
Y5975299D02*
Y6007801D01*
Y2857800D02*
X8144901D01*
X10318201Y4823602D02*
X10408199D01*
X10318201Y4523598D02*
X10408199D01*
X10293198Y4638599D02*
Y4668601D01*
X10433202Y4638599D02*
Y4708601D01*
X5355600Y3994099D02*
X5437099D01*
Y3928100D02*
Y3994099D01*
X5355600Y3702101D02*
X5437099D01*
Y3768100D01*
X5033198Y3863503D02*
Y3883503D01*
X4898202Y3863503D02*
Y3883503D01*
D53*
X8088600Y10287000D02*
G03*
X8088600Y10287000I-875000J0D01*
G01*
D54*
X4089100Y4148400D02*
G03*
X4089100Y4148400I-20000J0D01*
G01*
X11019898Y6987802D02*
G03*
X11019898Y6987802I-10000J0D01*
G01*
D55*
X10268200Y4828600D02*
G03*
X10268200Y4828600I-5000J0D01*
G01*
D56*
X10649000Y10703400D02*
X10955000D01*
X10649000Y10349400D02*
X10955000D01*
X11505898Y7052805D02*
Y7412804D01*
X11080900Y7532804D02*
X11308398D01*
X11080900Y7452804D02*
Y7532804D01*
Y6932800D02*
X11308398D01*
X11080900D02*
Y7012800D01*
D57*
X9786620Y4578985D02*
Y4769485D01*
X9903963Y4578985D02*
X9984237D01*
X10101580D02*
Y4769485D01*
D58*
X8597900Y3457355D02*
Y3357387D01*
X8647884D01*
X8664545Y3374048D01*
Y3440693D01*
X8647884Y3457355D01*
X8597900D01*
X8747852Y3357387D02*
X8714529D01*
X8697868Y3374048D01*
Y3407371D01*
X8714529Y3424032D01*
X8747852D01*
X8764513Y3407371D01*
Y3390709D01*
X8697868D01*
X8797836Y3357387D02*
X8847819D01*
X8864481Y3374048D01*
X8847819Y3390709D01*
X8814497D01*
X8797836Y3407371D01*
X8814497Y3424032D01*
X8864481D01*
X8897803Y3357387D02*
X8931126D01*
X8914465D01*
Y3424032D01*
X8897803D01*
X9014432Y3324064D02*
X9031094D01*
X9047755Y3340725D01*
Y3424032D01*
X8997771D01*
X8981110Y3407371D01*
Y3374048D01*
X8997771Y3357387D01*
X9047755D01*
X9081078D02*
Y3424032D01*
X9131061D01*
X9147723Y3407371D01*
Y3357387D01*
X9231029D02*
X9197707D01*
X9181045Y3374048D01*
Y3407371D01*
X9197707Y3424032D01*
X9231029D01*
X9247690Y3407371D01*
Y3390709D01*
X9181045D01*
X9347658Y3457355D02*
Y3357387D01*
X9297675D01*
X9281013Y3374048D01*
Y3407371D01*
X9297675Y3424032D01*
X9347658D01*
X9480949Y3457355D02*
Y3357387D01*
X9530933D01*
X9547594Y3374048D01*
Y3390709D01*
Y3407371D01*
X9530933Y3424032D01*
X9480949D01*
X9580917D02*
Y3374048D01*
X9597578Y3357387D01*
X9647562D01*
Y3340725D01*
X9630900Y3324064D01*
X9614239D01*
X9647562Y3357387D02*
Y3424032D01*
X8597900Y3143143D02*
Y3209788D01*
X8631223Y3243111D01*
X8664545Y3209788D01*
Y3143143D01*
Y3193127D01*
X8597900D01*
X8697868Y3143143D02*
X8731190D01*
X8714529D01*
Y3243111D01*
X8697868D01*
X8831158Y3143143D02*
X8797836D01*
X8781174Y3159804D01*
Y3193127D01*
X8797836Y3209788D01*
X8831158D01*
X8847819Y3193127D01*
Y3176465D01*
X8781174D01*
X8881142Y3209788D02*
X8947787Y3143143D01*
X8914465Y3176465D01*
X8947787Y3209788D01*
X8881142Y3143143D01*
X8997771Y3209788D02*
X9031094D01*
X9047755Y3193127D01*
Y3143143D01*
X8997771D01*
X8981110Y3159804D01*
X8997771Y3176465D01*
X9047755D01*
X9081078Y3143143D02*
Y3209788D01*
X9131061D01*
X9147723Y3193127D01*
Y3143143D01*
X9247690Y3243111D02*
Y3143143D01*
X9197707D01*
X9181045Y3159804D01*
Y3193127D01*
X9197707Y3209788D01*
X9247690D01*
X9330997Y3143143D02*
X9297675D01*
X9281013Y3159804D01*
Y3193127D01*
X9297675Y3209788D01*
X9330997D01*
X9347658Y3193127D01*
Y3176465D01*
X9281013D01*
X9380981Y3209788D02*
Y3143143D01*
Y3176465D01*
X9397642Y3193127D01*
X9414303Y3209788D01*
X9430965D01*
X9647562Y3226449D02*
X9630900Y3243111D01*
X9597578D01*
X9580917Y3226449D01*
Y3209788D01*
X9597578Y3193127D01*
X9630900D01*
X9647562Y3176465D01*
Y3159804D01*
X9630900Y3143143D01*
X9597578D01*
X9580917Y3159804D01*
X9697546Y3209788D02*
X9730868D01*
X9747529Y3193127D01*
Y3143143D01*
X9697546D01*
X9680884Y3159804D01*
X9697546Y3176465D01*
X9747529D01*
X9847497Y3209788D02*
X9797514D01*
X9780852Y3193127D01*
Y3159804D01*
X9797514Y3143143D01*
X9847497D01*
X9897481Y3226449D02*
Y3209788D01*
X9880820D01*
X9914142D01*
X9897481D01*
Y3159804D01*
X9914142Y3143143D01*
X9964126D02*
X9997449D01*
X9980788D01*
Y3209788D01*
X9964126D01*
X10114078D02*
X10064094D01*
X10047433Y3193127D01*
Y3159804D01*
X10064094Y3143143D01*
X10114078D01*
X8597900Y3062189D02*
Y2962221D01*
X8647884D01*
X8664545Y2978883D01*
Y3045528D01*
X8647884Y3062189D01*
X8597900D01*
X8697868D02*
Y3045528D01*
X8731190Y3012205D01*
X8764513Y3045528D01*
Y3062189D01*
X8731190Y3012205D02*
Y2962221D01*
X8864481Y3045528D02*
X8847819Y3062189D01*
X8814497D01*
X8797836Y3045528D01*
Y2978883D01*
X8814497Y2962221D01*
X8847819D01*
X8864481Y2978883D01*
X8897803Y3062189D02*
Y2962221D01*
X8947787D01*
X8964448Y2978883D01*
Y3045528D01*
X8947787Y3062189D01*
X8897803D01*
X9064416D02*
X8997771D01*
Y2962221D01*
X9064416D01*
X8997771Y3012205D02*
X9031094D01*
X8597900Y2881268D02*
Y2814623D01*
X8631223Y2781300D01*
X8664545Y2814623D01*
Y2881268D01*
X8697868Y2781300D02*
X8731190D01*
X8714529D01*
Y2881268D01*
X8697868Y2864606D01*
X8781174Y2781300D02*
Y2797961D01*
X8797836D01*
Y2781300D01*
X8781174D01*
X8864481Y2864606D02*
X8881142Y2881268D01*
X8914465D01*
X8931126Y2864606D01*
Y2797961D01*
X8914465Y2781300D01*
X8881142D01*
X8864481Y2797961D01*
Y2864606D01*
X2979387Y10368231D02*
X2928603D01*
X2953995D01*
Y10241272D01*
X2928603Y10215880D01*
X2903212D01*
X2877820Y10241272D01*
X3030171Y10215880D02*
X3080954D01*
X3055563D01*
Y10368231D01*
X3030171Y10342839D01*
X3157130D02*
X3182521Y10368231D01*
X3233305D01*
X3258697Y10342839D01*
Y10241272D01*
X3233305Y10215880D01*
X3182521D01*
X3157130Y10241272D01*
Y10342839D01*
X5715024Y9944108D02*
Y9893324D01*
Y9918716D01*
X5841983D01*
X5867375Y9893324D01*
Y9867933D01*
X5841983Y9842541D01*
X5740416Y9994892D02*
X5715024Y10020283D01*
Y10071067D01*
X5740416Y10096459D01*
X5765808D01*
X5791200Y10071067D01*
X5816592Y10096459D01*
X5841983D01*
X5867375Y10071067D01*
Y10020283D01*
X5841983Y9994892D01*
X5816592D01*
X5791200Y10020283D01*
X5765808Y9994892D01*
X5740416D01*
X5791200Y10020283D02*
Y10071067D01*
X10063480Y8841691D02*
Y8714732D01*
X10088872Y8689340D01*
X10139655D01*
X10165047Y8714732D01*
Y8841691D01*
X10215831Y8689340D02*
X10266614D01*
X10241223D01*
Y8841691D01*
X10215831Y8816299D01*
X10444357Y8689340D02*
X10342790D01*
X10444357Y8790907D01*
Y8816299D01*
X10418965Y8841691D01*
X10368181D01*
X10342790Y8816299D01*
X9212580Y8841691D02*
Y8714732D01*
X9237972Y8689340D01*
X9288755D01*
X9314147Y8714732D01*
Y8841691D01*
X9364931Y8689340D02*
X9415714D01*
X9390323D01*
Y8841691D01*
X9364931Y8816299D01*
X9491890Y8689340D02*
X9542673D01*
X9517281D01*
Y8841691D01*
X9491890Y8816299D01*
X8348980Y8841691D02*
Y8714732D01*
X8374372Y8689340D01*
X8425155D01*
X8450547Y8714732D01*
Y8841691D01*
X8501331Y8689340D02*
X8552114D01*
X8526723D01*
Y8841691D01*
X8501331Y8816299D01*
X8628290D02*
X8653681Y8841691D01*
X8704465D01*
X8729857Y8816299D01*
Y8714732D01*
X8704465Y8689340D01*
X8653681D01*
X8628290Y8714732D01*
Y8816299D01*
X9867933Y7810483D02*
X9842541Y7835875D01*
X9791758D01*
X9766366Y7810483D01*
Y7708917D01*
X9791758Y7683525D01*
X9842541D01*
X9867933Y7708917D01*
X10020284Y7683525D02*
X9918717D01*
X10020284Y7785092D01*
Y7810483D01*
X9994892Y7835875D01*
X9944108D01*
X9918717Y7810483D01*
X10172634Y7683525D02*
X10071067D01*
X10172634Y7785092D01*
Y7810483D01*
X10147243Y7835875D01*
X10096459D01*
X10071067Y7810483D01*
X9398025D02*
X9372633Y7835875D01*
X9321850D01*
X9296458Y7810483D01*
Y7708917D01*
X9321850Y7683525D01*
X9372633D01*
X9398025Y7708917D01*
X9550376Y7683525D02*
X9448808D01*
X9550376Y7785092D01*
Y7810483D01*
X9524984Y7835875D01*
X9474200D01*
X9448808Y7810483D01*
X9601159Y7683525D02*
X9651943D01*
X9626551D01*
Y7835875D01*
X9601159Y7810483D01*
X8890033D02*
X8864641Y7835875D01*
X8813858D01*
X8788466Y7810483D01*
Y7708917D01*
X8813858Y7683525D01*
X8864641D01*
X8890033Y7708917D01*
X9042384Y7683525D02*
X8940817D01*
X9042384Y7785092D01*
Y7810483D01*
X9016992Y7835875D01*
X8966208D01*
X8940817Y7810483D01*
X9093167D02*
X9118559Y7835875D01*
X9169343D01*
X9194734Y7810483D01*
Y7708917D01*
X9169343Y7683525D01*
X9118559D01*
X9093167Y7708917D01*
Y7810483D01*
X10325232Y5092675D02*
Y4965717D01*
X10350623Y4940325D01*
X10401407D01*
X10426799Y4965717D01*
Y5092675D01*
X10579150Y5067283D02*
X10553758Y5092675D01*
X10502974D01*
X10477582Y5067283D01*
Y5041892D01*
X10502974Y5016500D01*
X10553758D01*
X10579150Y4991108D01*
Y4965717D01*
X10553758Y4940325D01*
X10502974D01*
X10477582Y4965717D01*
X10629933Y5092675D02*
Y4940325D01*
X10706108D01*
X10731500Y4965717D01*
Y4991108D01*
X10706108Y5016500D01*
X10629933D01*
X10706108D01*
X10731500Y5041892D01*
Y5067283D01*
X10706108Y5092675D01*
X10629933D01*
X10782284Y5016500D02*
X10883851D01*
X11036202Y5067283D02*
X11010810Y5092675D01*
X10960026D01*
X10934634Y5067283D01*
Y4965717D01*
X10960026Y4940325D01*
X11010810D01*
X11036202Y4965717D01*
X11086985Y4940325D02*
X11137769D01*
X11112377D01*
Y5092675D01*
X11086985Y5067283D01*
X7048541Y9118575D02*
Y8991617D01*
X7073933Y8966225D01*
X7124717D01*
X7150108Y8991617D01*
Y9118575D01*
X7277067Y8966225D02*
Y9118575D01*
X7200892Y9042400D01*
X7302459D01*
X10655341Y10909275D02*
Y10782317D01*
X10680733Y10756925D01*
X10731517D01*
X10756908Y10782317D01*
Y10909275D01*
X10807692Y10883883D02*
X10833084Y10909275D01*
X10883867D01*
X10909259Y10883883D01*
Y10858492D01*
X10883867Y10833100D01*
X10858475D01*
X10883867D01*
X10909259Y10807708D01*
Y10782317D01*
X10883867Y10756925D01*
X10833084D01*
X10807692Y10782317D01*
X6731041Y8089875D02*
Y7962917D01*
X6756433Y7937525D01*
X6807217D01*
X6832608Y7962917D01*
Y8089875D01*
X6984959Y7937525D02*
X6883392D01*
X6984959Y8039092D01*
Y8064483D01*
X6959567Y8089875D01*
X6908784D01*
X6883392Y8064483D01*
X9880633Y5130775D02*
Y5003817D01*
X9906025Y4978425D01*
X9956808D01*
X9982200Y5003817D01*
Y5130775D01*
X10032984Y4978425D02*
X10083767D01*
X10058376D01*
Y5130775D01*
X10032984Y5105383D01*
X11125208Y3352783D02*
X11099817Y3378175D01*
X11049033D01*
X11023641Y3352783D01*
Y3327392D01*
X11049033Y3302000D01*
X11099817D01*
X11125208Y3276608D01*
Y3251217D01*
X11099817Y3225825D01*
X11049033D01*
X11023641Y3251217D01*
X11277559Y3225825D02*
X11175992D01*
X11277559Y3327392D01*
Y3352783D01*
X11252167Y3378175D01*
X11201384D01*
X11175992Y3352783D01*
X11391916Y5575300D02*
X11366524Y5549908D01*
Y5499125D01*
X11391916Y5473733D01*
X11417308D01*
X11442700Y5499125D01*
Y5549908D01*
X11468092Y5575300D01*
X11493483D01*
X11518875Y5549908D01*
Y5499125D01*
X11493483Y5473733D01*
X11518875Y5626083D02*
Y5676867D01*
Y5651475D01*
X11366524D01*
X11391916Y5626083D01*
X5885180Y6769100D02*
Y6921451D01*
X5961355D01*
X5986747Y6896059D01*
Y6845275D01*
X5961355Y6819883D01*
X5885180D01*
X5935963D02*
X5986747Y6769100D01*
X6037531Y6896059D02*
X6062923Y6921451D01*
X6113706D01*
X6139098Y6896059D01*
Y6870667D01*
X6088314Y6819883D01*
Y6794492D02*
Y6769100D01*
X4859020Y4168140D02*
Y4320491D01*
X4935195D01*
X4960587Y4295099D01*
Y4244315D01*
X4935195Y4218923D01*
X4859020D01*
X4909803D02*
X4960587Y4168140D01*
X5011371Y4320491D02*
X5112938D01*
Y4295099D01*
X5011371Y4193532D01*
Y4168140D01*
X5283225Y5143459D02*
X5435575D01*
Y5067283D01*
X5410183Y5041892D01*
X5359400D01*
X5334008Y5067283D01*
Y5143459D01*
Y5092675D02*
X5283225Y5041892D01*
X5435575Y4889541D02*
X5410183Y4940325D01*
X5359400Y4991108D01*
X5308617D01*
X5283225Y4965716D01*
Y4914933D01*
X5308617Y4889541D01*
X5334008D01*
X5359400Y4914933D01*
Y4991108D01*
X8420141Y5448325D02*
Y5600675D01*
X8496317D01*
X8521708Y5575283D01*
Y5524500D01*
X8496317Y5499108D01*
X8420141D01*
X8470925D02*
X8521708Y5448325D01*
X8674059Y5600675D02*
X8572492D01*
Y5524500D01*
X8623275Y5549892D01*
X8648667D01*
X8674059Y5524500D01*
Y5473717D01*
X8648667Y5448325D01*
X8597884D01*
X8572492Y5473717D01*
X10617829Y6134929D02*
X10770180D01*
Y6058754D01*
X10744788Y6033362D01*
X10694005D01*
X10668613Y6058754D01*
Y6134929D01*
Y6084146D02*
X10617829Y6033362D01*
Y5906403D02*
X10770180D01*
X10694005Y5982579D01*
Y5881011D01*
X10680741Y5499125D02*
Y5651475D01*
X10756917D01*
X10782308Y5626083D01*
Y5575300D01*
X10756917Y5549908D01*
X10680741D01*
X10731525D02*
X10782308Y5499125D01*
X10833092Y5626083D02*
X10858484Y5651475D01*
X10909267D01*
X10934659Y5626083D01*
Y5600692D01*
X10909267Y5575300D01*
X10883875D01*
X10909267D01*
X10934659Y5549908D01*
Y5524517D01*
X10909267Y5499125D01*
X10858484D01*
X10833092Y5524517D01*
X9563141Y3949725D02*
Y4102075D01*
X9639317D01*
X9664708Y4076683D01*
Y4025900D01*
X9639317Y4000508D01*
X9563141D01*
X9613925D02*
X9664708Y3949725D01*
X9817059D02*
X9715492D01*
X9817059Y4051292D01*
Y4076683D01*
X9791667Y4102075D01*
X9740884D01*
X9715492Y4076683D01*
X9601233Y3644925D02*
Y3797275D01*
X9677408D01*
X9702800Y3771883D01*
Y3721100D01*
X9677408Y3695708D01*
X9601233D01*
X9652017D02*
X9702800Y3644925D01*
X9753584D02*
X9804367D01*
X9778976D01*
Y3797275D01*
X9753584Y3771883D01*
X5341587Y4165592D02*
Y4267159D01*
X5316195Y4292551D01*
X5265412D01*
X5240020Y4267159D01*
Y4165592D01*
X5265412Y4140200D01*
X5316195D01*
X5290803Y4190983D02*
X5341587Y4140200D01*
X5316195D02*
X5341587Y4165592D01*
X5493938Y4140200D02*
X5392371D01*
X5493938Y4241767D01*
Y4267159D01*
X5468546Y4292551D01*
X5417763D01*
X5392371Y4267159D01*
X4838700Y4826017D02*
Y4927583D01*
X4813308Y4952975D01*
X4762525D01*
X4737133Y4927583D01*
Y4826017D01*
X4762525Y4800625D01*
X4813308D01*
X4787917Y4851408D02*
X4838700Y4800625D01*
X4813308D02*
X4838700Y4826017D01*
X4889484Y4800625D02*
X4940267D01*
X4914876D01*
Y4952975D01*
X4889484Y4927583D01*
X2908275Y6769141D02*
X2755924D01*
Y6845316D01*
X2781316Y6870708D01*
X2832100D01*
X2857492Y6845316D01*
Y6769141D01*
X2781316Y6921492D02*
X2755924Y6946883D01*
Y6997667D01*
X2781316Y7023059D01*
X2806708D01*
X2857492Y6972275D01*
X2882883D02*
X2908275D01*
X6294120Y6103620D02*
Y6255971D01*
X6344903Y6205187D01*
X6395687Y6255971D01*
Y6103620D01*
X6446471Y6255971D02*
Y6103620D01*
X6522646D01*
X6548038Y6129012D01*
Y6230579D01*
X6522646Y6255971D01*
X6446471D01*
X6598821Y6103620D02*
X6649605D01*
X6624213D01*
Y6255971D01*
X6598821Y6230579D01*
X11069287Y7828231D02*
X11018503D01*
X11043895D01*
Y7701272D01*
X11018503Y7675880D01*
X10993112D01*
X10967720Y7701272D01*
X11120071Y7802839D02*
X11145463Y7828231D01*
X11196246D01*
X11221638Y7802839D01*
Y7777447D01*
X11196246Y7752055D01*
X11170854D01*
X11196246D01*
X11221638Y7726663D01*
Y7701272D01*
X11196246Y7675880D01*
X11145463D01*
X11120071Y7701272D01*
X11252241Y6438875D02*
Y6286525D01*
X11328417D01*
X11353808Y6311917D01*
Y6413483D01*
X11328417Y6438875D01*
X11252241D01*
X11404592Y6413483D02*
X11429984Y6438875D01*
X11480767D01*
X11506159Y6413483D01*
Y6388092D01*
X11480767Y6362700D01*
X11455375D01*
X11480767D01*
X11506159Y6337308D01*
Y6311917D01*
X11480767Y6286525D01*
X11429984D01*
X11404592Y6311917D01*
X10134624Y6134141D02*
X10286975D01*
Y6210316D01*
X10261583Y6235708D01*
X10160016D01*
X10134624Y6210316D01*
Y6134141D01*
X10286975Y6388059D02*
Y6286492D01*
X10185408Y6388059D01*
X10160016D01*
X10134624Y6362667D01*
Y6311883D01*
X10160016Y6286492D01*
X10241280Y5067251D02*
Y4914900D01*
X10317455D01*
X10342847Y4940292D01*
Y5041859D01*
X10317455Y5067251D01*
X10241280D01*
X10393631Y4914900D02*
X10444414D01*
X10419023D01*
Y5067251D01*
X10393631Y5041859D01*
X6007116Y7899429D02*
X5981724Y7874037D01*
Y7823253D01*
X6007116Y7797861D01*
X6108683D01*
X6134075Y7823253D01*
Y7874037D01*
X6108683Y7899429D01*
X6134075Y7950212D02*
Y8000996D01*
Y7975604D01*
X5981724D01*
X6007116Y7950212D01*
X5981724Y8178738D02*
Y8077171D01*
X6057900D01*
X6032508Y8127955D01*
Y8153346D01*
X6057900Y8178738D01*
X6108683D01*
X6134075Y8153346D01*
Y8102563D01*
X6108683Y8077171D01*
X9055129Y5092683D02*
X9029737Y5118075D01*
X8978954D01*
X8953562Y5092683D01*
Y4991117D01*
X8978954Y4965725D01*
X9029737D01*
X9055129Y4991117D01*
X9105912Y4965725D02*
X9156696D01*
X9131304D01*
Y5118075D01*
X9105912Y5092683D01*
X9309047Y4965725D02*
Y5118075D01*
X9232871Y5041900D01*
X9334439D01*
X4899627Y7891739D02*
X4874235Y7917131D01*
X4823452D01*
X4798060Y7891739D01*
Y7790172D01*
X4823452Y7764780D01*
X4874235D01*
X4899627Y7790172D01*
X4950411Y7764780D02*
X5001194D01*
X4975803D01*
Y7917131D01*
X4950411Y7891739D01*
X5077370D02*
X5102761Y7917131D01*
X5153545D01*
X5178937Y7891739D01*
Y7866347D01*
X5153545Y7840955D01*
X5128153D01*
X5153545D01*
X5178937Y7815563D01*
Y7790172D01*
X5153545Y7764780D01*
X5102761D01*
X5077370Y7790172D01*
X9486929Y5092683D02*
X9461537Y5118075D01*
X9410754D01*
X9385362Y5092683D01*
Y4991117D01*
X9410754Y4965725D01*
X9461537D01*
X9486929Y4991117D01*
X9537712Y4965725D02*
X9588496D01*
X9563104D01*
Y5118075D01*
X9537712Y5092683D01*
X9766239Y4965725D02*
X9664671D01*
X9766239Y5067292D01*
Y5092683D01*
X9740847Y5118075D01*
X9690063D01*
X9664671Y5092683D01*
X9868028Y5448456D02*
X9842685Y5473898D01*
X9791902Y5473997D01*
X9766461Y5448654D01*
X9766263Y5347088D01*
X9791606Y5321646D01*
X9842389Y5321547D01*
X9867830Y5346890D01*
X9918564Y5321399D02*
X9969347Y5321300D01*
X9943956Y5321350D01*
X9944253Y5473700D01*
X9918811Y5448358D01*
X10045770Y5448111D02*
X10071211Y5473453D01*
X10121994Y5473354D01*
X10147337Y5447913D01*
X10147139Y5346346D01*
X10121698Y5321004D01*
X10070915Y5321102D01*
X10045572Y5346544D01*
X10045770Y5448111D01*
X8966208Y5981683D02*
X8940817Y6007075D01*
X8890033D01*
X8864641Y5981683D01*
Y5880117D01*
X8890033Y5854725D01*
X8940817D01*
X8966208Y5880117D01*
X9016992D02*
X9042384Y5854725D01*
X9093167D01*
X9118559Y5880117D01*
Y5981683D01*
X9093167Y6007075D01*
X9042384D01*
X9016992Y5981683D01*
Y5956292D01*
X9042384Y5930900D01*
X9118559D01*
X9220216Y5689608D02*
X9194824Y5664216D01*
Y5613433D01*
X9220216Y5588041D01*
X9321783D01*
X9347175Y5613433D01*
Y5664216D01*
X9321783Y5689608D01*
X9194824Y5740392D02*
Y5841959D01*
X9220216D01*
X9321783Y5740392D01*
X9347175D01*
X9867908Y6045183D02*
X9842517Y6070575D01*
X9791733D01*
X9766341Y6045183D01*
Y5943617D01*
X9791733Y5918225D01*
X9842517D01*
X9867908Y5943617D01*
X10020259Y6070575D02*
X9969475Y6045183D01*
X9918692Y5994400D01*
Y5943617D01*
X9944084Y5918225D01*
X9994867D01*
X10020259Y5943617D01*
Y5969008D01*
X9994867Y5994400D01*
X9918692D01*
X9906008Y6324583D02*
X9880617Y6349975D01*
X9829833D01*
X9804441Y6324583D01*
Y6223017D01*
X9829833Y6197625D01*
X9880617D01*
X9906008Y6223017D01*
X10058359Y6349975D02*
X9956792D01*
Y6273800D01*
X10007575Y6299192D01*
X10032967D01*
X10058359Y6273800D01*
Y6223017D01*
X10032967Y6197625D01*
X9982184D01*
X9956792Y6223017D01*
X10477508Y5486383D02*
X10452117Y5511775D01*
X10401333D01*
X10375941Y5486383D01*
Y5384817D01*
X10401333Y5359425D01*
X10452117D01*
X10477508Y5384817D01*
X10604467Y5359425D02*
Y5511775D01*
X10528292Y5435600D01*
X10629859D01*
X11391916Y5854708D02*
X11366524Y5829316D01*
Y5778533D01*
X11391916Y5753141D01*
X11493483D01*
X11518875Y5778533D01*
Y5829316D01*
X11493483Y5854708D01*
X11391916Y5905492D02*
X11366524Y5930883D01*
Y5981667D01*
X11391916Y6007059D01*
X11417308D01*
X11442700Y5981667D01*
Y5956275D01*
Y5981667D01*
X11468092Y6007059D01*
X11493483D01*
X11518875Y5981667D01*
Y5930883D01*
X11493483Y5905492D01*
X4051308Y4813283D02*
X4025917Y4838675D01*
X3975133D01*
X3949741Y4813283D01*
Y4711717D01*
X3975133Y4686325D01*
X4025917D01*
X4051308Y4711717D01*
X4203659Y4686325D02*
X4102092D01*
X4203659Y4787892D01*
Y4813283D01*
X4178267Y4838675D01*
X4127484D01*
X4102092Y4813283D01*
X4102100Y4533883D02*
X4076708Y4559275D01*
X4025925D01*
X4000533Y4533883D01*
Y4432317D01*
X4025925Y4406925D01*
X4076708D01*
X4102100Y4432317D01*
X4152884Y4406925D02*
X4203667D01*
X4178276D01*
Y4559275D01*
X4152884Y4533883D01*
X3505233Y4203683D02*
X3606800Y4102117D01*
X3505233D02*
X3606800Y4203683D01*
X3505233Y4152900D02*
X3606800D01*
X3556017Y4102117D02*
Y4203683D01*
X3657584Y4076725D02*
X3708367D01*
X3682976D01*
Y4229075D01*
X3657584Y4203683D01*
D59*
X10175379Y4870450D02*
X10090740Y4785811D01*
Y4870450D02*
X10175379Y4785811D01*
X10133059Y4870450D02*
Y4785811D01*
X10090740Y4828130D02*
X10175379D01*
%TF.MD5,1b9e81bab2982cadbcb701784fa586c2*%
M02*
