%TF.GenerationSoftware,Altium Limited,Altium Designer,24.3.1 (35)*%
G04 Layer_Color=0*
%FSLAX45Y45*%
%MOMM*%
%TF.SameCoordinates,335D41A4-EFD6-4B0F-B868-2B534B1C8AB3*%
%TF.FilePolarity,Positive*%
%TF.FileFunction,Profile,NP*%
%TF.Part,Single*%
G01*
G75*
%TA.AperFunction,Profile*%
%ADD92C,0.02540*%
G36*
X8356600Y11188700D02*
X8407400Y11239500D01*
X8496300D01*
Y9512300D01*
X8432800D01*
X8356600Y9588500D01*
Y11188700D01*
D02*
G37*
G36*
X10591800Y10160000D02*
X10464800Y9982200D01*
X10985500D01*
Y10160000D01*
X10591800D01*
D02*
G37*
G36*
X6388100Y9271000D02*
X6324600Y9207500D01*
Y9169400D01*
X7734300D01*
Y9207500D01*
X7670800Y9271000D01*
X7645400D01*
X6388100D01*
D02*
G37*
G36*
X10299700Y11287752D02*
X10426700Y11160752D01*
Y10175248D01*
X10299700Y10004682D01*
Y11287752D01*
D02*
G37*
G36*
X5981700Y11195050D02*
X6070600D01*
X6108700Y11156950D01*
Y9607550D01*
X6070600Y9569450D01*
X6057900Y9556750D01*
X5981700D01*
Y11195050D01*
D02*
G37*
D92*
X2540000Y2540000D02*
X11645900D01*
Y11531600D01*
X2540000D01*
Y2540000D01*
%TF.MD5,2e797573a7022a1759504c07b2c65f61*%
M02*
