M48
;Layer_Color=9474304
;FILE_FORMAT=4:3
METRIC,LZ
;TYPE=PLATED
T02F00S00C0.610
T03F00S00C0.711
T04F00S00C0.762
T05F00S00C1.000
T06F00S00C1.100
T07F00S00C1.200
T08F00S00C3.000
%
T02
X0109409Y0041052
Y0046832
T03
X0035687Y0031242
X0043053Y0036957
X0058801Y0037973
X0060325Y0035306
X0073279Y0036703
X0087503Y0038862
X0104267Y0034925
X0105283Y0040386
X0103924Y0042202
X0090678Y0042647
X0086868Y0041631
X008443Y0049225
X0082906
X0082626Y0054864
X008636Y0053365
X0099568Y0057277
X0103759Y0062738
X008255Y0075819
X0076962Y0069596
X0069723Y0072822
X006665Y0059157
X0066675Y0055626
X0066929Y0047498
X0066523Y0043459
X0067031Y0040157
X0060096Y0040259
X0053721Y0045339
X0041148Y0040259
X0075819Y0047752
X0077419Y0050546
X0032639Y0059182
X0042926Y0081153
X0046609Y008255
X008763Y0092583
X0109601Y009271
X0112268Y0093345
X0111252Y0094361
T04
X00554Y010246
Y0105
Y010754
Y011008
T05
X003Y008977
Y009231
Y009485
Y009739
Y009993
X00554
Y009739
Y009485
Y009231
Y008977
T06
X0031369Y0063881
Y0066421
X0033909
Y0063881
Y0068961
X0031369
Y0071501
X0033909
Y0074041
X0031369
T07
X0068777Y0099511
X0067386Y010287
X0068777Y0106229
X0075495
X0076886Y010287
X0075495Y0099511
T08
X0029Y0029
X0112
X0029Y0081
X0112Y0111
M30
