%TF.GenerationSoftware,Altium Limited,Altium Designer,24.3.1 (35)*%
G04 Layer_Color=8388736*
%FSLAX45Y45*%
%MOMM*%
%TF.SameCoordinates,335D41A4-EFD6-4B0F-B868-2B534B1C8AB3*%
%TF.FilePolarity,Negative*%
%TF.FileFunction,Soldermask,Top*%
%TF.Part,Single*%
G01*
G75*
%TA.AperFunction,SMDPad,CuDef*%
%ADD10R,1.90620X1.50464*%
%ADD11R,0.95000X1.45000*%
%ADD17R,1.50000X1.50000*%
%ADD23R,1.35000X1.00000*%
%ADD28R,0.43180X1.13030*%
%ADD30R,5.00000X5.00000*%
%ADD31R,2.00000X0.90000*%
%TA.AperFunction,ComponentPad*%
%ADD38C,1.55000*%
%ADD39R,1.55000X1.55000*%
%ADD43C,1.85000*%
%ADD44R,1.85000X1.85000*%
%TA.AperFunction,ConnectorPad*%
%ADD60R,1.30000X0.45000*%
%TA.AperFunction,SMDPad,CuDef*%
G04:AMPARAMS|DCode=61|XSize=0.8358mm|YSize=0.65mm|CornerRadius=0.1375mm|HoleSize=0mm|Usage=FLASHONLY|Rotation=0.000|XOffset=0mm|YOffset=0mm|HoleType=Round|Shape=RoundedRectangle|*
%AMROUNDEDRECTD61*
21,1,0.83580,0.37500,0,0,0.0*
21,1,0.56080,0.65000,0,0,0.0*
1,1,0.27500,0.28040,-0.18750*
1,1,0.27500,-0.28040,-0.18750*
1,1,0.27500,-0.28040,0.18750*
1,1,0.27500,0.28040,0.18750*
%
%ADD61ROUNDEDRECTD61*%
G04:AMPARAMS|DCode=62|XSize=1.05mm|YSize=1.6mm|CornerRadius=0.1245mm|HoleSize=0mm|Usage=FLASHONLY|Rotation=90.000|XOffset=0mm|YOffset=0mm|HoleType=Round|Shape=RoundedRectangle|*
%AMROUNDEDRECTD62*
21,1,1.05000,1.35100,0,0,90.0*
21,1,0.80100,1.60000,0,0,90.0*
1,1,0.24900,0.67550,0.40050*
1,1,0.24900,0.67550,-0.40050*
1,1,0.24900,-0.67550,-0.40050*
1,1,0.24900,-0.67550,0.40050*
%
%ADD62ROUNDEDRECTD62*%
G04:AMPARAMS|DCode=63|XSize=3.3mm|YSize=1.6mm|CornerRadius=0.12575mm|HoleSize=0mm|Usage=FLASHONLY|Rotation=90.000|XOffset=0mm|YOffset=0mm|HoleType=Round|Shape=RoundedRectangle|*
%AMROUNDEDRECTD63*
21,1,3.30000,1.34850,0,0,90.0*
21,1,3.04850,1.60000,0,0,90.0*
1,1,0.25150,0.67425,1.52425*
1,1,0.25150,0.67425,-1.52425*
1,1,0.25150,-0.67425,-1.52425*
1,1,0.25150,-0.67425,1.52425*
%
%ADD63ROUNDEDRECTD63*%
%ADD64R,1.65000X1.70000*%
%ADD65R,1.70000X1.70000*%
%ADD66R,1.40000X1.37000*%
%ADD67R,1.10000X1.65000*%
%ADD68R,1.05000X1.65000*%
%ADD69R,1.05000X0.95000*%
%ADD70R,1.95000X0.79000*%
%ADD71R,1.55000X1.70000*%
%ADD72R,1.40000X1.70000*%
%ADD73R,1.70000X1.40000*%
%ADD74R,1.20000X1.60000*%
%ADD75R,0.85000X1.15000*%
%ADD76R,0.85000X0.75000*%
%ADD77R,1.70000X0.75000*%
%ADD78R,1.95000X1.35000*%
%TA.AperFunction,ViaPad*%
%ADD79C,1.67400*%
%ADD80C,4.15000*%
%TA.AperFunction,ComponentPad*%
%ADD81C,0.93000*%
%ADD82C,1.80000*%
G04:AMPARAMS|DCode=83|XSize=1.8mm|YSize=1.8mm|CornerRadius=0.4875mm|HoleSize=0mm|Usage=FLASHONLY|Rotation=90.000|XOffset=0mm|YOffset=0mm|HoleType=Round|Shape=RoundedRectangle|*
%AMROUNDEDRECTD83*
21,1,1.80000,0.82500,0,0,90.0*
21,1,0.82500,1.80000,0,0,90.0*
1,1,0.97500,0.41250,0.41250*
1,1,0.97500,0.41250,-0.41250*
1,1,0.97500,-0.41250,-0.41250*
1,1,0.97500,-0.41250,0.41250*
%
%ADD83ROUNDEDRECTD83*%
%ADD84C,0.95000*%
G04:AMPARAMS|DCode=85|XSize=1.15mm|YSize=1.95mm|CornerRadius=0.575mm|HoleSize=0mm|Usage=FLASHONLY|Rotation=90.000|XOffset=0mm|YOffset=0mm|HoleType=Round|Shape=RoundedRectangle|*
%AMROUNDEDRECTD85*
21,1,1.15000,0.80000,0,0,90.0*
21,1,0.00000,1.95000,0,0,90.0*
1,1,1.15000,0.40000,0.00000*
1,1,1.15000,0.40000,0.00000*
1,1,1.15000,-0.40000,0.00000*
1,1,1.15000,-0.40000,0.00000*
%
%ADD85ROUNDEDRECTD85*%
G04:AMPARAMS|DCode=86|XSize=1.15mm|YSize=2.25mm|CornerRadius=0.575mm|HoleSize=0mm|Usage=FLASHONLY|Rotation=90.000|XOffset=0mm|YOffset=0mm|HoleType=Round|Shape=RoundedRectangle|*
%AMROUNDEDRECTD86*
21,1,1.15000,1.10000,0,0,90.0*
21,1,0.00000,2.25000,0,0,90.0*
1,1,1.15000,0.55000,0.00000*
1,1,1.15000,0.55000,0.00000*
1,1,1.15000,-0.55000,0.00000*
1,1,1.15000,-0.55000,0.00000*
%
%ADD86ROUNDEDRECTD86*%
%TA.AperFunction,ViaPad*%
%ADD87C,1.42000*%
D10*
X9436100Y7503378D02*
D03*
Y7203222D02*
D03*
X9740900Y7503378D02*
D03*
Y7203222D02*
D03*
X9105900D02*
D03*
Y7503378D02*
D03*
X6070600Y8333522D02*
D03*
Y8633678D02*
D03*
X9512300Y4472722D02*
D03*
Y4772878D02*
D03*
X9169400D02*
D03*
Y4472722D02*
D03*
X4927600Y7554178D02*
D03*
Y7254022D02*
D03*
D11*
X9910100Y4025900D02*
D03*
X10105100D02*
D03*
X9910100Y3721100D02*
D03*
X10105100D02*
D03*
D17*
X10248900Y5641599D02*
D03*
Y5991601D02*
D03*
D23*
X10490200Y5640400D02*
D03*
Y5840400D02*
D03*
D28*
X10039101Y4813300D02*
D03*
X9944100D02*
D03*
X9849099D02*
D03*
Y4535170D02*
D03*
X10039101D02*
D03*
D30*
X7339899Y4356801D02*
D03*
D31*
X6389898Y3606800D02*
D03*
Y3733800D02*
D03*
Y3860800D02*
D03*
Y3987800D02*
D03*
Y4114800D02*
D03*
Y4241800D02*
D03*
Y4368800D02*
D03*
Y4495800D02*
D03*
Y4622800D02*
D03*
Y4749800D02*
D03*
Y4876800D02*
D03*
Y5003800D02*
D03*
Y5130800D02*
D03*
Y5257800D02*
D03*
Y5384800D02*
D03*
Y5511800D02*
D03*
Y5638800D02*
D03*
Y5765800D02*
D03*
Y5892800D02*
D03*
X8089900D02*
D03*
Y5765800D02*
D03*
Y5638800D02*
D03*
Y5511800D02*
D03*
Y5384800D02*
D03*
Y5257800D02*
D03*
Y5130800D02*
D03*
Y5003800D02*
D03*
Y4876800D02*
D03*
Y4749800D02*
D03*
Y4622800D02*
D03*
Y4495800D02*
D03*
Y4368800D02*
D03*
Y4241800D02*
D03*
Y4114800D02*
D03*
Y3987800D02*
D03*
Y3860800D02*
D03*
Y3733800D02*
D03*
Y3606800D02*
D03*
D38*
X5540000Y9993000D02*
D03*
Y9739000D02*
D03*
Y9485000D02*
D03*
Y9231000D02*
D03*
X3000000Y9993000D02*
D03*
Y9739000D02*
D03*
Y9485000D02*
D03*
Y9231000D02*
D03*
D39*
X5540000Y8977000D02*
D03*
X3000000D02*
D03*
D43*
X6738600Y10287000D02*
D03*
X7688600D02*
D03*
X7549500Y10622900D02*
D03*
X6877700Y9951100D02*
D03*
X7549500D02*
D03*
D44*
X6877700Y10622900D02*
D03*
D60*
X10825000Y4699200D02*
D03*
Y4089200D02*
D03*
X10834400Y4729200D02*
D03*
X10828000Y4649200D02*
D03*
X10834400Y4169200D02*
D03*
Y4059200D02*
D03*
X10828000Y4139200D02*
D03*
X10834400Y4219200D02*
D03*
Y4269200D02*
D03*
Y4319200D02*
D03*
Y4369200D02*
D03*
Y4419200D02*
D03*
Y4469200D02*
D03*
Y4519200D02*
D03*
Y4569200D02*
D03*
Y4619200D02*
D03*
D61*
X10922000Y10646400D02*
D03*
Y10566400D02*
D03*
Y10486400D02*
D03*
Y10406400D02*
D03*
X10682000Y10404400D02*
D03*
Y10486400D02*
D03*
Y10566400D02*
D03*
Y10646400D02*
D03*
D62*
X6550503Y8726302D02*
D03*
Y8496300D02*
D03*
Y8266298D02*
D03*
D63*
X7165503Y8496300D02*
D03*
D64*
X8901598Y5727700D02*
D03*
X9081602D02*
D03*
X10719902Y5245100D02*
D03*
X10539898D02*
D03*
X9640402Y6261100D02*
D03*
X9460398D02*
D03*
X9640402Y5981700D02*
D03*
X9460398D02*
D03*
X9640402Y5702300D02*
D03*
X9460398D02*
D03*
D65*
X11058098Y5867400D02*
D03*
X11243102D02*
D03*
X4550202Y4737100D02*
D03*
X4365198D02*
D03*
X4550202Y4457700D02*
D03*
X4365198D02*
D03*
X9642902Y5397500D02*
D03*
X9457898D02*
D03*
D66*
X10990402Y6134100D02*
D03*
X11285398D02*
D03*
D67*
X11408898Y5243998D02*
D03*
X10993902D02*
D03*
X11358098Y3605698D02*
D03*
X10943102D02*
D03*
D68*
X8420200Y8035400D02*
D03*
X8750200D02*
D03*
Y8525400D02*
D03*
X8420200D02*
D03*
X9283800Y8035400D02*
D03*
X9613800D02*
D03*
Y8525400D02*
D03*
X9283800D02*
D03*
X10134700Y8035400D02*
D03*
X10464700D02*
D03*
Y8525400D02*
D03*
X10134700D02*
D03*
D69*
X4941900Y4628901D02*
D03*
Y4438899D02*
D03*
X5141900Y4533900D02*
D03*
X5272100Y3943101D02*
D03*
Y3753099D02*
D03*
X5472100Y3848100D02*
D03*
D70*
X4539600Y4152900D02*
D03*
Y4025900D02*
D03*
Y3898900D02*
D03*
Y3771900D02*
D03*
Y3644900D02*
D03*
Y3517900D02*
D03*
Y3390900D02*
D03*
Y3263900D02*
D03*
X3918600D02*
D03*
Y3390900D02*
D03*
Y3517900D02*
D03*
Y3644900D02*
D03*
Y3771900D02*
D03*
Y3898900D02*
D03*
Y4025900D02*
D03*
Y4152900D02*
D03*
D71*
X11055599Y5575300D02*
D03*
X11245601D02*
D03*
D72*
X8889101Y5397500D02*
D03*
X9094099D02*
D03*
D73*
X5143500Y4863202D02*
D03*
Y5068200D02*
D03*
X4965700Y3975999D02*
D03*
Y3771001D02*
D03*
D74*
X5939998Y6591300D02*
D03*
X6125002D02*
D03*
D75*
X10263200Y4748601D02*
D03*
D76*
Y4578599D02*
D03*
X10463200D02*
D03*
Y4768601D02*
D03*
D77*
X11048398Y7382802D02*
D03*
Y7282802D02*
D03*
Y7182802D02*
D03*
Y7082802D02*
D03*
D78*
X11435901Y6952800D02*
D03*
Y7512804D02*
D03*
D79*
X5540000Y10246000D02*
D03*
Y11008000D02*
D03*
Y10754000D02*
D03*
Y10500000D02*
D03*
D80*
X2900000Y8100000D02*
D03*
Y2900000D02*
D03*
X11200000D02*
D03*
Y11100000D02*
D03*
D81*
X10940900Y4683200D02*
D03*
Y4105200D02*
D03*
D82*
X3136900Y6642100D02*
D03*
X3390900D02*
D03*
X3136900Y6388100D02*
D03*
X3390900Y6896100D02*
D03*
X3136900D02*
D03*
X3390900Y7150100D02*
D03*
Y7404100D02*
D03*
X3136900Y7150100D02*
D03*
Y7404100D02*
D03*
D83*
X3390900Y6388100D02*
D03*
D84*
X11201400Y5154000D02*
D03*
Y5334000D02*
D03*
X11150600Y3515695D02*
D03*
Y3695700D02*
D03*
D85*
X11308900Y4826200D02*
D03*
Y3962200D02*
D03*
D86*
X10890900Y4826200D02*
D03*
Y3962200D02*
D03*
D87*
X10960100Y9271000D02*
D03*
X11226800Y9334500D02*
D03*
X7581900Y4775200D02*
D03*
X6972300Y7282180D02*
D03*
X4660900Y8255000D02*
D03*
X4292600Y8115300D02*
D03*
X5372100Y4533900D02*
D03*
X6692900Y4749800D02*
D03*
X6667500Y5562600D02*
D03*
X7327900Y3670300D02*
D03*
X6652260Y4345940D02*
D03*
X6032500Y3530600D02*
D03*
X3263900Y5918200D02*
D03*
X5880100Y3797300D02*
D03*
X4305300Y3695700D02*
D03*
X8255000Y7581900D02*
D03*
X7696200Y6959600D02*
D03*
X7741920Y5054600D02*
D03*
X10426700Y3492500D02*
D03*
X8750300Y3886200D02*
D03*
X8686800Y4163060D02*
D03*
X11125200Y9436100D02*
D03*
X8763000Y9258300D02*
D03*
X9956800Y5727700D02*
D03*
X10392355Y4220155D02*
D03*
X4114800Y4025900D02*
D03*
X3568700Y3124200D02*
D03*
X10528300Y4038600D02*
D03*
X8636000Y5336540D02*
D03*
X10375900Y6273800D02*
D03*
X6009640Y4025900D02*
D03*
X8442960Y4922520D02*
D03*
X8290560D02*
D03*
X6703060Y4015740D02*
D03*
X8262620Y5486400D02*
D03*
X6664960Y5915660D02*
D03*
X9067800Y4264660D02*
D03*
%TF.MD5,c21e7331b438d0ae431f5c6da9363491*%
M02*
